<svg xmlns="http://www.w3.org/2000/svg" viewBox="0 0 936.88 359.08"><defs><style>.cls-1,.cls-2{fill:#39205f;}.cls-2{stroke:#39205f;stroke-miterlimit:10;stroke-width:5px;}.cls-3{fill:#85c44a;}</style></defs><title>Recurso 2final</title><g id="Capa_2" data-name="Capa 2"><g id="Capa_1-2" data-name="Capa 1"><path class="cls-1" d="M260.75,137.74h27.36L301.9,191c3.4,12.51,5.69,24.05,9.16,36.67h.7c3.47-12.62,5.91-24.16,9.17-36.67l13.5-53.3h26.43L326.37,252.11H295.3Z"/><path class="cls-1" d="M368.91,138.84c0-7.91,6.28-13.49,14.93-13.49s14.93,5.58,14.93,13.49-6.27,13.48-14.93,13.48S368.91,146.68,368.91,138.84Zm2,26.21h25.79v87.06H370.92Z"/><path class="cls-1" d="M414.34,165.05h21.05l1.86,11h.64c7.32-7,16.1-13.13,28-13.13,18.93,0,27,13.36,27,35.12v54H467.07V201.37c0-12.53-3.37-16.45-10.82-16.45-6.48,0-10.44,3-16.11,8.46v58.73h-25.8Z"/><path class="cls-2" d="M514.41,136.47h29.13c26.18,0,41.9,8.5,41.9,32.22,0,22.69-15.44,33.69-41.2,33.69H522.48v49.73h-8.07Zm27.8,59.1c23.61,0,34.92-7.86,34.92-26.88,0-19.34-11.73-25.41-35.63-25.41h-19v52.29Z"/><path class="cls-2" d="M610.86,240.81V125.87h7.76v116c0,3.76,1.54,5.51,3.65,5.51a13.27,13.27,0,0,0,3.15-.35l1.3,6.32a17.39,17.39,0,0,1-5.58.88C614.37,254.22,610.86,250,610.86,240.81Z"/><path class="cls-2" d="M644.41,231.14c0-18.72,16.88-27.63,54.36-31.77.25-13-3.3-26.82-19.86-26.82-11.37,0-21.2,5.62-26.85,9.9l-3.58-5.76c6-4.21,17.65-10.95,31.34-10.95,20,0,26.71,14.5,26.71,32.54v53.83H700l-.85-11h-.38c-8.6,7-18.85,13.06-29.9,13.06C655.5,254.22,644.41,247,644.41,231.14Zm54.36,2.79V205.26c-34.6,4-46.43,12-46.43,25.48,0,12.09,8.18,16.74,17.86,16.74S688.35,242.81,698.77,233.93Z"/><path class="cls-2" d="M733.6,167.85h6.56L741,180.9h.39c8.6-8.56,17.37-15.16,29-15.16,17.4,0,25.48,10.57,25.48,32.33v54H788.1v-53c0-17.86-5.65-26.36-19.2-26.36-10,0-17.3,5.3-27.55,15.83v63.56H733.6Z"/><path class="cls-3" d="M828.44,140.46h14l9.24,25.3c1.14,3.36,2.14,7,3.28,10.52h.35c1.14-3.51,2.11-7.16,3.25-10.52l8.95-25.3h14.05v56.95H869.88v-20.9c0-5.55,1-13.84,1.65-19.35h-.35l-4.67,13.48-8.06,21.82h-7.14l-8.07-21.82-4.55-13.48h-.35C839,162.67,840,171,840,176.51v20.9H828.44Z"/><path class="cls-3" d="M905.05,168.1l-14.81-27.64h14.35l4.95,10.77c1.29,2.62,2.51,5.55,4.14,9.13H914c1.32-3.58,2.51-6.51,3.65-9.13l4.52-10.77h13.74l-14.81,28.25,15.75,28.7H922.53l-5.62-11.61c-1.43-2.94-2.74-5.88-4.26-9.38h-.35c-1.35,3.5-2.64,6.44-3.92,9.38l-5.33,11.61H889.31Z"/><path class="cls-3" d="M209.36,86.08c-5-92-102-86-102-86v154c-19-3-33-17-33-17l-17,18c27,24,50.5,24,50.5,24v120.5c-109-116-79.5-209.5-79.5-209.5h-26c-23,150,130,269,130,269v-179C220.36,156.08,209.36,86.08,209.36,86.08Zm-24,4c-2,54-53,64-53,64v-127C187.36,37.08,185.36,90.08,185.36,90.08Z"/></g></g></svg>